<svg width="66" height="66" viewBox="0 0 66 66" fill="none" xmlns="http://www.w3.org/2000/svg">
<circle cx="33" cy="33" r="33" fill="#20BCCB"/>
<path d="M31 45C31 46.1046 31.8954 47 33 47C34.1046 47 35 46.1046 35 45L31 45ZM34.4142 19.5858C33.6332 18.8047 32.3668 18.8047 31.5858 19.5858L18.8579 32.3137C18.0768 33.0948 18.0768 34.3611 18.8579 35.1421C19.6389 35.9232 20.9052 35.9232 21.6863 35.1421L33 23.8284L44.3137 35.1421C45.0948 35.9232 46.3611 35.9232 47.1421 35.1421C47.9232 34.3611 47.9232 33.0948 47.1421 32.3137L34.4142 19.5858ZM35 45L35 21L31 21L31 45L35 45Z" fill="white"/>
</svg>
