<svg width="29" height="33" viewBox="0 0 29 33" fill="none" xmlns="http://www.w3.org/2000/svg">
<g clip-path="url(#clip0_625_3249)">
<path d="M14.5064 9.08794C10.3895 9.08794 7.06872 12.3944 7.06872 16.4936C7.06872 20.5928 10.3895 23.8993 14.5064 23.8993C18.6234 23.8993 21.9442 20.5928 21.9442 16.4936C21.9442 12.3944 18.6234 9.08794 14.5064 9.08794ZM14.5064 21.3083C11.846 21.3083 9.67095 19.1491 9.67095 16.4936C9.67095 13.8381 11.8395 11.679 14.5064 11.679C17.1734 11.679 19.3419 13.8381 19.3419 16.4936C19.3419 19.1491 17.1669 21.3083 14.5064 21.3083ZM23.9832 8.78501C23.9832 9.74536 23.2064 10.5124 22.2484 10.5124C21.2839 10.5124 20.5136 9.73892 20.5136 8.78501C20.5136 7.8311 21.2904 7.05767 22.2484 7.05767C23.2064 7.05767 23.9832 7.8311 23.9832 8.78501ZM28.9093 10.5381C28.7993 8.22427 28.2685 6.17466 26.566 4.48599C24.8701 2.79731 22.8116 2.2688 20.4877 2.15278C18.0926 2.01743 10.9138 2.01743 8.51872 2.15278C6.20131 2.26235 4.14283 2.79087 2.44037 4.47954C0.737919 6.16821 0.213588 8.21782 0.0970703 10.5317C-0.0388672 12.9165 -0.0388672 20.0643 0.0970703 22.4491C0.207115 24.7629 0.737919 26.8125 2.44037 28.5012C4.14283 30.1899 6.19484 30.7184 8.51872 30.8344C10.9138 30.9698 18.0926 30.9698 20.4877 30.8344C22.8116 30.7249 24.8701 30.1963 26.566 28.5012C28.262 26.8125 28.7928 24.7629 28.9093 22.4491C29.0453 20.0643 29.0453 12.9229 28.9093 10.5381ZM25.8151 25.0079C25.3102 26.2711 24.3328 27.2444 23.0576 27.7536C21.148 28.5077 16.6167 28.3336 14.5064 28.3336C12.3962 28.3336 7.85845 28.5012 5.95533 27.7536C4.68658 27.2508 3.70912 26.2776 3.19774 25.0079C2.44037 23.1065 2.61515 18.5948 2.61515 16.4936C2.61515 14.3924 2.44685 9.87427 3.19774 7.97935C3.70265 6.71606 4.68011 5.74282 5.95533 5.23364C7.86493 4.47954 12.3962 4.65356 14.5064 4.65356C16.6167 4.65356 21.1544 4.48599 23.0576 5.23364C24.3263 5.73638 25.3038 6.70962 25.8151 7.97935C26.5725 9.88071 26.3977 14.3924 26.3977 16.4936C26.3977 18.5948 26.5725 23.1129 25.8151 25.0079Z" fill="white"/>
</g>
<defs>
<clipPath id="clip0_625_3249">
<rect width="29" height="33" fill="white"/>
</clipPath>
</defs>
</svg>
