<svg width="14" height="15" viewBox="0 0 14 15" fill="none" xmlns="http://www.w3.org/2000/svg">
<path d="M3.88889 9C3.66852 9 3.4838 8.92813 3.33472 8.78438C3.18565 8.64062 3.11111 8.4625 3.11111 8.25C3.11111 8.0375 3.18565 7.85938 3.33472 7.71563C3.4838 7.57188 3.66852 7.5 3.88889 7.5C4.10926 7.5 4.29398 7.57188 4.44306 7.71563C4.59213 7.85938 4.66667 8.0375 4.66667 8.25C4.66667 8.4625 4.59213 8.64062 4.44306 8.78438C4.29398 8.92813 4.10926 9 3.88889 9ZM7 9C6.77963 9 6.59491 8.92813 6.44583 8.78438C6.29676 8.64062 6.22222 8.4625 6.22222 8.25C6.22222 8.0375 6.29676 7.85938 6.44583 7.71563C6.59491 7.57188 6.77963 7.5 7 7.5C7.22037 7.5 7.40509 7.57188 7.55417 7.71563C7.70324 7.85938 7.77778 8.0375 7.77778 8.25C7.77778 8.4625 7.70324 8.64062 7.55417 8.78438C7.40509 8.92813 7.22037 9 7 9ZM10.1111 9C9.89074 9 9.70602 8.92813 9.55694 8.78438C9.40787 8.64062 9.33333 8.4625 9.33333 8.25C9.33333 8.0375 9.40787 7.85938 9.55694 7.71563C9.70602 7.57188 9.89074 7.5 10.1111 7.5C10.3315 7.5 10.5162 7.57188 10.6653 7.71563C10.8144 7.85938 10.8889 8.0375 10.8889 8.25C10.8889 8.4625 10.8144 8.64062 10.6653 8.78438C10.5162 8.92813 10.3315 9 10.1111 9ZM1.55556 15C1.12778 15 0.761574 14.8531 0.456944 14.5594C0.152315 14.2656 0 13.9125 0 13.5V3C0 2.5875 0.152315 2.23438 0.456944 1.94063C0.761574 1.64688 1.12778 1.5 1.55556 1.5H2.33333V0H3.88889V1.5H10.1111V0H11.6667V1.5H12.4444C12.8722 1.5 13.2384 1.64688 13.5431 1.94063C13.8477 2.23438 14 2.5875 14 3V13.5C14 13.9125 13.8477 14.2656 13.5431 14.5594C13.2384 14.8531 12.8722 15 12.4444 15H1.55556ZM1.55556 13.5H12.4444V6H1.55556V13.5ZM1.55556 4.5H12.4444V3H1.55556V4.5Z" fill="black"/>
</svg>
