<svg width="47" height="47" viewBox="0 0 47 47" fill="none" xmlns="http://www.w3.org/2000/svg">
<circle cx="23.5" cy="23.5" r="22" stroke="black" stroke-opacity="0.3" stroke-width="3"/>
<path d="M13.9952 18.8182V29H11.8425V20.8615H11.7828L9.45117 22.3232V20.4141L11.9718 18.8182H13.9952ZM20.4073 29.2237C19.5522 29.2204 18.8164 29.0099 18.1999 28.5923C17.5868 28.1747 17.1145 27.5698 16.783 26.7777C16.4549 25.9856 16.2925 25.0327 16.2958 23.919C16.2958 22.8087 16.4599 21.8625 16.788 21.0803C17.1194 20.2981 17.5917 19.7031 18.2049 19.2955C18.8214 18.8845 19.5555 18.679 20.4073 18.679C21.2591 18.679 21.9916 18.8845 22.6048 19.2955C23.2212 19.7064 23.6952 20.303 24.0266 21.0852C24.3581 21.8641 24.5221 22.8087 24.5188 23.919C24.5188 25.036 24.3531 25.9905 24.0217 26.7827C23.6935 27.5748 23.2229 28.1797 22.6097 28.5973C21.9966 29.0149 21.2624 29.2237 20.4073 29.2237ZM20.4073 27.4389C20.9906 27.4389 21.4563 27.1456 21.8043 26.5589C22.1523 25.9723 22.3247 25.0923 22.3214 23.919C22.3214 23.1468 22.2418 22.5038 22.0827 21.9901C21.927 21.4763 21.7049 21.0902 21.4165 20.8317C21.1315 20.5732 20.7951 20.4439 20.4073 20.4439C19.8273 20.4439 19.3633 20.7339 19.0153 21.3139C18.6673 21.8939 18.4916 22.7623 18.4883 23.919C18.4883 24.7012 18.5662 25.3542 18.7219 25.8778C18.881 26.3982 19.1048 26.7893 19.3931 27.0511C19.6815 27.3097 20.0195 27.4389 20.4073 27.4389ZM31.627 27.0909V26.554C31.627 26.1463 31.7131 25.7718 31.8855 25.4304C32.0611 25.0857 32.3147 24.8106 32.6461 24.6051C32.9809 24.3963 33.3886 24.2919 33.8691 24.2919C34.3564 24.2919 34.7657 24.3946 35.0971 24.6001C35.4319 24.8056 35.6838 25.0807 35.8528 25.4254C36.0252 25.7668 36.1113 26.143 36.1113 26.554V27.0909C36.1113 27.4986 36.0252 27.8748 35.8528 28.2195C35.6805 28.5608 35.4269 28.8343 35.0922 29.0398C34.7574 29.2486 34.3497 29.353 33.8691 29.353C33.3819 29.353 32.9726 29.2486 32.6412 29.0398C32.3097 28.8343 32.0578 28.5608 31.8855 28.2195C31.7131 27.8748 31.627 27.4986 31.627 27.0909ZM33.0737 26.554V27.0909C33.0737 27.3262 33.13 27.5483 33.2427 27.7571C33.3587 27.9659 33.5675 28.0703 33.8691 28.0703C34.1708 28.0703 34.3762 27.9676 34.4856 27.7621C34.5983 27.5566 34.6547 27.3329 34.6547 27.0909V26.554C34.6547 26.312 34.6016 26.0866 34.4956 25.8778C34.3895 25.669 34.1807 25.5646 33.8691 25.5646C33.5708 25.5646 33.3637 25.669 33.2477 25.8778C33.1317 26.0866 33.0737 26.312 33.0737 26.554ZM26.4018 21.2642V20.7273C26.4018 20.3163 26.4896 19.9401 26.6653 19.5987C26.841 19.254 27.0945 18.9789 27.426 18.7734C27.7607 18.5679 28.1651 18.4652 28.639 18.4652C29.1296 18.4652 29.5405 18.5679 29.872 18.7734C30.2034 18.9789 30.4553 19.254 30.6277 19.5987C30.8 19.9401 30.8862 20.3163 30.8862 20.7273V21.2642C30.8862 21.6752 30.7984 22.0514 30.6227 22.3928C30.4503 22.7341 30.1968 23.0076 29.862 23.2131C29.5306 23.4152 29.1229 23.5163 28.639 23.5163C28.1551 23.5163 27.7458 23.4136 27.411 23.2081C27.0796 22.9993 26.8277 22.7259 26.6554 22.3878C26.4863 22.0464 26.4018 21.6719 26.4018 21.2642ZM27.8585 20.7273V21.2642C27.8585 21.5062 27.9148 21.7299 28.0275 21.9354C28.1435 22.1409 28.3474 22.2436 28.639 22.2436C28.944 22.2436 29.1511 22.1409 29.2605 21.9354C29.3732 21.7299 29.4295 21.5062 29.4295 21.2642V20.7273C29.4295 20.4853 29.3765 20.2599 29.2704 20.0511C29.1644 19.8423 28.9539 19.7379 28.639 19.7379C28.344 19.7379 28.1402 19.844 28.0275 20.0561C27.9148 20.2682 27.8585 20.492 27.8585 20.7273ZM27.0581 29L34.0581 18.8182H35.3606L28.3606 29H27.0581Z" fill="black" fill-opacity="0.3"/>
</svg>
