<svg width="30" height="29" viewBox="0 0 30 29" fill="none" xmlns="http://www.w3.org/2000/svg">
<path d="M2.5 28.9859C1.80556 28.9859 1.21528 28.744 0.729167 28.2602C0.243056 27.7764 0 27.1889 0 26.4978V23.3463L6.66667 17.4579V28.9859H2.5ZM8.33333 28.9859V22.351H21.6667V28.9859H8.33333ZM23.3333 28.9859V15.3845L16.2083 9.08141L21.25 4.64437L29.1667 11.6524C29.4444 11.9012 29.6528 12.1846 29.7917 12.5025C29.9306 12.8204 30 13.1591 30 13.5184V26.4978C30 27.1889 29.7569 27.7764 29.2708 28.2602C28.7847 28.744 28.1944 28.9859 27.5 28.9859H23.3333ZM0 21.107V13.5184C0 13.1591 0.0694444 12.8135 0.208333 12.4818C0.347222 12.15 0.555556 11.8736 0.833333 11.6524L13.3333 0.622014C13.5556 0.400854 13.8125 0.241894 14.1042 0.145137C14.3958 0.0483789 14.6944 0 15 0C15.3056 0 15.6042 0.0483789 15.8958 0.145137C16.1875 0.241894 16.4444 0.400854 16.6667 0.622014L20 3.56622L0 21.107Z" fill="white"/>
</svg>
